
<svg width="386px" height="234px" viewBox="0 0 386 234" version="1.1" xmlns="http://www.w3.org/2000/svg" xmlns:xlink="http://www.w3.org/1999/xlink">
    <g id="Prototype" stroke="none" stroke-width="1" fill="none" fill-rule="evenodd">
        <g id="Dashboard" transform="translate(-526.000000, -1856.000000)" fill-rule="nonzero">
            <g id="Results" transform="translate(100.000000, 1525.000000)">
                <g id="Short-listed" transform="translate(0.000000, 256.000000)">
                    <g id="photo2" transform="translate(426.000000, 75.000000)">
                        <path d="M386,5.56127255 L386,226.454708 C386,227.929173 385.415394,229.343443 384.373415,230.386395 C383.331436,231.429345 381.917934,232.016173 380.443862,232.016173 L5.55980832,232.016173 C5.29293448,232.016173 5.02637182,231.997358 4.76302704,231.95404 C2.02931042,231.560319 0,229.217354 0,226.454708 L0,5.56127255 C0,2.49089319 2.48651596,0 5.55607536,0 L380.440161,0 C381.914229,0 383.328121,0.584756675 384.370792,1.62700962 C385.413465,2.66926267 386,4.08313923 386,5.55760135 L386,5.56127255 Z" id="Path" fill="#F2F2F2"></path>
                        <circle id="Oval" fill="#FF6584" cx="94.6792453" cy="82.1940701" r="48.9002695"></circle>
                        <path d="M247.622642,233.056604 L8.17782139,233.056604 C7.87800996,233.05976 7.57847708,233.035964 7.28301887,232.984772 L120.529388,36.2891551 C121.936505,33.795196 124.573062,32.2533693 127.430669,32.2533693 C130.288275,32.2533693 132.924833,33.795196 134.33195,36.2891551 L210.334477,168.287176 L213.97561,174.603287 L247.622642,233.056604 Z" id="Path" fill="#3F3D56"></path>
                        <polygon id="Path" fill="#000000" opacity="0.2" points="247.622642 233.056604 165.428571 233.056604 205.777106 174.840555 208.681687 170.64711 210.133452 168.549865 213.794423 174.840555"></polygon>
                        <path d="M380.797844,233.056604 L173.752022,233.056604 L213.873452,174.724134 L216.760743,170.522037 L269.042553,94.5036562 C272.470117,89.521475 280.71584,89.211213 284.745679,93.5639701 C285.016334,93.8608687 285.267806,94.1747336 285.498567,94.5036562 L380.797844,233.056604 Z" id="Path" fill="#3F3D56"></path>
                    </g>
                </g>
            </g>
        </g>
    </g>
</svg>