
<svg width="20px" height="20px" viewBox="0 0 20 20" version="1.1" xmlns="http://www.w3.org/2000/svg" xmlns:xlink="http://www.w3.org/1999/xlink">
    <g id="Prototype" stroke="none" stroke-width="1" fill="none" fill-rule="evenodd">
        <g id="Parameters" transform="translate(-643.000000, -545.000000)" fill="#ED5940" fill-rule="nonzero">
            <g id="settings" transform="translate(643.662000, 545.400000)">
                <path d="M16.4780003,10.54 C16.5180003,10.24 16.5380003,9.93 16.5380003,9.6 C16.5380003,9.28 16.5180003,8.96 16.4680003,8.66 L18.4980003,7.08 C18.6780003,6.94 18.7280003,6.67 18.6180003,6.47 L16.6980003,3.15 C16.5780003,2.93 16.3280003,2.86 16.1080003,2.93 L13.7180003,3.89 C13.2180003,3.51 12.6880003,3.19 12.0980003,2.95 L11.7380003,0.41 C11.6980003,0.17 11.4980003,2.13162821e-14 11.2580003,2.13162821e-14 L7.41800033,2.13162821e-14 C7.17800033,2.13162821e-14 6.98800033,0.17 6.94800033,0.41 L6.58800033,2.95 C5.99800033,3.19 5.45800033,3.52 4.96800033,3.89 L2.57800033,2.93 C2.35800033,2.85 2.10800033,2.93 1.98800033,3.15 L0.0780003303,6.47 C-0.0419996697,6.68 -0.00199966968,6.94 0.19800033,7.08 L2.22800033,8.66 C2.17800033,8.96 2.13800033,9.29 2.13800033,9.6 C2.13800033,9.91 2.15800033,10.24 2.20800033,10.54 L0.17800033,12.12 C-0.00199966968,12.26 -0.0519996697,12.53 0.0580003303,12.73 L1.97800033,16.05 C2.09800033,16.27 2.34800033,16.34 2.56800033,16.27 L4.95800033,15.31 C5.45800033,15.69 5.98800033,16.01 6.57800033,16.25 L6.93800033,18.79 C6.98800033,19.03 7.17800033,19.2 7.41800033,19.2 L11.2580003,19.2 C11.4980003,19.2 11.6980003,19.03 11.7280003,18.79 L12.0880003,16.25 C12.6780003,16.01 13.2180003,15.69 13.7080003,15.31 L16.0980003,16.27 C16.3180003,16.35 16.5680003,16.27 16.6880003,16.05 L18.6080003,12.73 C18.7280003,12.51 18.6780003,12.26 18.4880003,12.12 L16.4780003,10.54 Z M9.33800033,13.2 C7.35800033,13.2 5.73800033,11.58 5.73800033,9.6 C5.73800033,7.62 7.35800033,6 9.33800033,6 C11.3180003,6 12.9380003,7.62 12.9380003,9.6 C12.9380003,11.58 11.3180003,13.2 9.33800033,13.2 Z" id="Shape"></path>
            </g>
        </g>
    </g>
</svg>